<svg xmlns="http://www.w3.org/2000/svg" viewBox="0 9.470000267028809 125.9800033569336 36.37999725341797" data-asc="0.9052734375" width="125.9800033569336" height="36.37999725341797"><defs/><g fill="#000000"><g transform="translate(0, 0)"><path d="M0 45.26L0 9.47L4.74 9.47L4.74 24.17L23.34 24.17L23.34 9.47L28.08 9.47L28.08 45.26L23.34 45.26L23.34 28.39L4.74 28.39L4.74 45.26L0 45.26ZM52.32 42.07Q49.88 44.14 47.62 45.00Q45.36 45.85 42.77 45.85Q38.50 45.85 36.21 43.76Q33.91 41.67 33.91 38.43Q33.91 36.52 34.78 34.95Q35.64 33.37 37.05 32.42Q38.45 31.47 40.21 30.98Q41.50 30.64 44.12 30.32Q49.44 29.69 51.95 28.81Q51.98 27.91 51.98 27.66Q51.98 24.98 50.73 23.88Q49.05 22.39 45.73 22.39Q42.63 22.39 41.15 23.47Q39.67 24.56 38.96 27.32L34.67 26.73Q35.25 23.97 36.60 22.28Q37.94 20.58 40.48 19.67Q43.02 18.75 46.36 18.75Q49.68 18.75 51.76 19.53Q53.83 20.31 54.81 21.50Q55.79 22.68 56.18 24.49Q56.40 25.61 56.40 28.54L56.40 34.40Q56.40 40.53 56.68 42.15Q56.96 43.77 57.79 45.26L53.20 45.26Q52.51 43.90 52.32 42.07M51.95 32.25Q49.56 33.23 44.78 33.91Q42.07 34.30 40.94 34.79Q39.82 35.28 39.21 36.22Q38.60 37.16 38.60 38.31Q38.60 40.06 39.93 41.24Q41.26 42.41 43.82 42.41Q46.36 42.41 48.34 41.30Q50.32 40.19 51.25 38.26Q51.95 36.77 51.95 33.86L51.95 32.25ZM63.16 45.26L63.16 19.34L67.11 19.34L67.11 23.27Q68.63 20.51 69.91 19.63Q71.19 18.75 72.73 18.75Q74.95 18.75 77.25 20.17L75.73 24.24Q74.12 23.29 72.51 23.29Q71.07 23.29 69.92 24.16Q68.77 25.02 68.29 26.56Q67.55 28.91 67.55 31.69L67.55 45.26L63.16 45.26ZM78.10 37.52L82.45 36.84Q82.81 39.45 84.48 40.84Q86.16 42.24 89.16 42.24Q92.19 42.24 93.65 41.00Q95.12 39.77 95.12 38.11Q95.12 36.62 93.82 35.77Q92.92 35.18 89.33 34.28Q84.50 33.06 82.63 32.17Q80.76 31.27 79.80 29.70Q78.83 28.13 78.83 26.22Q78.83 24.49 79.63 23.01Q80.42 21.53 81.79 20.56Q82.81 19.80 84.58 19.27Q86.35 18.75 88.38 18.75Q91.43 18.75 93.74 19.63Q96.04 20.51 97.14 22.01Q98.24 23.51 98.66 26.03L94.36 26.61Q94.07 24.61 92.66 23.49Q91.26 22.36 88.70 22.36Q85.67 22.36 84.38 23.36Q83.08 24.37 83.08 25.71Q83.08 26.56 83.62 27.25Q84.16 27.95 85.30 28.42Q85.96 28.66 89.18 29.54Q93.85 30.79 95.69 31.58Q97.53 32.37 98.58 33.89Q99.63 35.40 99.63 37.65Q99.63 39.84 98.35 41.78Q97.07 43.73 94.65 44.79Q92.24 45.85 89.18 45.85Q84.13 45.85 81.48 43.75Q78.83 41.65 78.10 37.52ZM104.86 45.26L104.86 9.47L109.25 9.47L109.25 22.31Q112.33 18.75 117.02 18.75Q119.90 18.75 122.02 19.89Q124.15 21.02 125.06 23.02Q125.98 25.02 125.98 28.83L125.98 45.26L121.58 45.26L121.58 28.83Q121.58 25.54 120.15 24.04Q118.73 22.53 116.11 22.53Q114.16 22.53 112.44 23.55Q110.72 24.56 109.99 26.29Q109.25 28.03 109.25 31.08L109.25 45.26L104.86 45.26Z"/></g></g></svg>